<?xml version="1.0" encoding="UTF-8" standalone="no"?><!DOCTYPE svg PUBLIC "-//W3C//DTD SVG 1.1//EN" "http://www.w3.org/Graphics/SVG/1.1/DTD/svg11.dtd"><svg width="100%" height="100%" viewBox="0 0 267 267" version="1.1" xmlns="http://www.w3.org/2000/svg" xmlns:xlink="http://www.w3.org/1999/xlink" xml:space="preserve" xmlns:serif="http://www.serif.com/" style="fill-rule:evenodd;clip-rule:evenodd;stroke-linejoin:round;stroke-miterlimit:2;"><path d="M85.004,63.175c0.259,1.203 1.201,2.143 2.406,2.399c1.216,0.258 2.416,0.565 3.598,0.918c1.061,0.317 2.21,0.049 3.021,-0.704c0.811,-0.754 1.163,-1.88 0.925,-2.962c-0.601,-2.734 -0.074,-6.21 3.339,-9.975c0.814,-0.898 1.035,-2.187 0.567,-3.306c-6.002,-14.326 -15.966,-20.385 -16.319,-20.596c-4.047,-2.489 -9.356,-1.239 -11.866,2.8c-2.507,4.034 -1.282,9.339 2.728,11.869c0.277,0.189 8.687,6.016 11.601,19.557Z" style="fill:#6b2e3f;"/><path d="M91.01,66.492l0.19,0.051l-0.047,-0.008c3.808,1.197 7.861,1.2 11.67,0.008c1.168,-0.353 2.354,-0.662 3.556,-0.923c0.386,-0.084 0.752,-0.24 1.08,-0.461c1.8,-1.21 3.918,-2.582 6.407,-4.128c10.039,-6.237 11.203,-13.623 10.663,-18.544c-0.002,-0.026 -0.006,-0.053 -0.009,-0.079c-0.3,-2.216 -1.572,-4.184 -3.47,-5.367c-1.899,-1.183 -4.225,-1.459 -6.348,-0.752c-0.004,0.001 -0.008,0.003 -0.012,0.004c-4.118,1.391 -10.31,3.866 -15.308,7.394c-10.718,7.565 -11.709,15.131 -10.532,20.483c0.249,1.131 1.093,2.005 2.16,2.322Z" style="fill:#35d14a;"/><path d="M144.168,73.561c-6.352,-9.466 -16.727,-15.246 -27.954,-15.245c-5.272,-0 -10.374,0.784 -15.204,2.246c-0.011,0.003 -0.022,0.007 -0.033,0.01c-2.594,0.816 -5.356,0.816 -7.95,0.001c-0.011,-0.003 -0.021,-0.006 -0.031,-0.01c-4.831,-1.463 -9.932,-2.247 -15.205,-2.247c0,-0 -0,-0 -0,-0c-13.405,-0 -25.604,8.385 -31.127,21.328c-0.002,0.003 -0.003,0.006 -0.004,0.009c-1.174,2.775 -2.148,5.664 -2.902,8.648c-0.237,0.934 -0.029,1.925 0.563,2.686c0.592,0.76 1.502,1.205 2.466,1.205l90.478,-0c1.367,-0 2.575,-0.888 2.983,-2.192l4.307,-13.764c0.283,-0.904 0.141,-1.888 -0.387,-2.675Z" style="fill:#ff005c;"/><path d="M175.377,48.174c-1.129,0.692 4.896,2.997 4.703,2.076c0.317,1.512 0.968,2.787 2.14,3.463c1.182,0.683 2.625,0.603 4.106,0.109c0.967,-0.322 2.03,-0.153 2.849,0.454c0.819,0.607 1.29,1.575 1.263,2.594c-0.022,0.858 0.143,1.674 0.558,2.394c0.744,1.289 2.126,2.03 3.777,2.396c2.137,0.474 4.696,0.303 7.358,-0.442c0.882,-0.247 1.828,-0.094 2.588,0.417c0.76,0.512 1.257,1.332 1.36,2.242c1.038,9.194 -1.957,18.414 -8.25,25.252l-1.89,2.054c-0.591,0.643 -1.425,1.009 -2.299,1.009l-56.375,-0c-0.994,-0 -1.929,-0.473 -2.518,-1.274c-0.589,-0.802 -0.761,-1.835 -0.464,-2.784c-0,-0 9.461,-30.231 9.461,-30.231c2.776,-8.869 9.263,-16.072 17.745,-19.77c0.839,-0.366 1.798,-0.345 2.621,0.057c0.823,0.402 1.428,1.145 1.655,2.033c0.685,2.677 1.817,4.979 3.297,6.593c1.142,1.246 2.475,2.072 3.963,2.072c0.831,-0 1.62,-0.265 2.352,-0.714Z" style="fill:#ffba4f;"/><path d="M30.472,127.993c-1.019,-0.435 -2.192,-0.297 -3.082,0.361c-0.891,0.658 -1.367,1.738 -1.252,2.839l8.91,84.939c1.739,16.582 15.72,29.172 32.392,29.172c35.112,0 96.674,0 131.787,0c16.672,0 30.652,-12.59 32.392,-29.172c-0,0 8.909,-84.939 8.909,-84.939c0.116,-1.101 -0.36,-2.181 -1.251,-2.839c-0.891,-0.658 -2.063,-0.796 -3.082,-0.361c-1.748,0.745 -3.673,1.156 -5.694,1.156c-42.781,0 -151.555,0 -194.335,0c-2.021,0 -3.946,-0.411 -5.694,-1.156Z" style="fill:#e2a773;"/><path d="M71.319,132.274l0,80.461c0,1.724 1.4,3.125 3.125,3.125c1.725,-0 3.125,-1.401 3.125,-3.125l0,-80.461c0,-1.725 -1.4,-3.125 -3.125,-3.125c-1.725,0 -3.125,1.4 -3.125,3.125Z" style="fill:#c3895c;"/><path d="M130.208,132.274l0,80.461c0,1.724 1.401,3.125 3.125,3.125c1.725,-0 3.125,-1.401 3.125,-3.125l0,-80.461c0,-1.725 -1.4,-3.125 -3.125,-3.125c-1.724,0 -3.125,1.4 -3.125,3.125Z" style="fill:#c3895c;"/><path d="M189.098,132.274l-0,80.461c-0,1.724 1.4,3.125 3.125,3.125c1.724,-0 3.125,-1.401 3.125,-3.125l-0,-80.461c-0,-1.725 -1.401,-3.125 -3.125,-3.125c-1.725,0 -3.125,1.4 -3.125,3.125Z" style="fill:#c3895c;"/><path d="M36.166,85.942c-11.483,-0 -20.792,9.309 -20.792,20.792l0,7.873c0,11.483 9.309,20.792 20.792,20.792l194.335,0c11.483,0 20.791,-9.309 20.791,-20.792l0,-7.873c0,-11.483 -9.308,-20.792 -20.791,-20.792c-0,-0 -194.335,-0 -194.335,-0Z" style="fill:#9d6f49;"/><path d="M232.303,209.61l-197.939,-0l0.684,6.522c1.739,16.582 15.72,29.172 32.392,29.172c35.112,0 96.674,0 131.787,0c16.672,0 30.652,-12.59 32.392,-29.172l0.684,-6.522Z" style="fill:#f1d0a7;"/><path d="M199.033,38.346c-0.854,0.393 -1.485,1.149 -1.719,2.059c-0.459,1.781 -1.205,3.614 -2.235,5.399c-2.33,4.034 -5.577,6.959 -8.753,8.018c-1.247,0.416 -2.101,1.568 -2.135,2.882c-0.055,2.044 0.404,3.972 1.393,5.685c1.658,2.872 4.608,4.778 8.364,5.481c4.767,0.891 10.96,-0.209 16.762,-3.558c5.801,-3.35 9.85,-8.163 11.461,-12.737c1.27,-3.605 1.095,-7.112 -0.564,-9.984c-1.522,-2.638 -4.126,-4.456 -7.449,-5.282c-4.223,-1.05 -9.724,-0.451 -15.125,2.037Z" style="fill:#45c156;"/><path d="M178.645,53.502c1.12,-0.687 1.691,-2.003 1.428,-3.291c-0.672,-3.279 0.238,-7.554 2.568,-11.588c1.03,-1.785 2.245,-3.348 3.557,-4.636c0.671,-0.657 1.01,-1.582 0.924,-2.518c-0.546,-5.921 -2.778,-10.985 -5.798,-14.117c-2.377,-2.465 -5.254,-3.81 -8.299,-3.81c-3.317,-0 -6.442,1.601 -8.929,4.503c-3.155,3.683 -5.299,9.596 -5.299,16.295c-0,6.699 2.144,12.612 5.299,16.294c2.487,2.903 5.612,4.504 8.929,4.504c1.978,-0 3.877,-0.567 5.62,-1.636Z" style="fill:#45c156;"/><path d="M198.624,25.3c-2.72,-1.57 -6.041,-1.743 -9.454,-0.541c-4.287,1.511 -8.803,5.301 -11.942,10.739c-3.14,5.437 -4.164,11.243 -3.329,15.711c0.666,3.557 2.476,6.346 5.196,7.917c2.72,1.57 6.041,1.744 9.454,0.541c4.287,-1.51 8.803,-5.301 11.942,-10.738c3.14,-5.438 4.164,-11.244 3.329,-15.712c-0.665,-3.557 -2.476,-6.346 -5.196,-7.917l0,0Z" style="fill:#59d96b;"/></svg>