<?xml version="1.0" encoding="UTF-8" standalone="no"?><!DOCTYPE svg PUBLIC "-//W3C//DTD SVG 1.1//EN" "http://www.w3.org/Graphics/SVG/1.1/DTD/svg11.dtd"><svg width="100%" height="100%" viewBox="0 0 267 267" version="1.1" xmlns="http://www.w3.org/2000/svg" xmlns:xlink="http://www.w3.org/1999/xlink" xml:space="preserve" xmlns:serif="http://www.serif.com/" style="fill-rule:evenodd;clip-rule:evenodd;stroke-linejoin:round;stroke-miterlimit:2;"><path d="M204.577,94.891c0,0 -3.125,3.125 -3.125,3.125l-3.125,-3.125c0,3.687 -1.464,7.223 -4.071,9.83c-2.607,2.607 -6.143,4.072 -9.83,4.072c-0.002,-0 -0.004,-0 -0.007,-0c-3.686,-0 -7.222,-1.465 -9.829,-4.072c-2.608,-2.607 -4.072,-6.143 -4.072,-9.83c-0,0 -3.125,3.125 -3.125,3.125l-3.125,-3.125c-0,3.687 -1.465,7.223 -4.072,9.83c-2.607,2.607 -6.143,4.072 -9.83,4.072c-0.002,-0 -0.004,-0 -0.006,-0c-3.687,-0 -7.223,-1.465 -9.83,-4.072c-2.607,-2.607 -4.072,-6.143 -4.072,-9.83c0,0 -3.125,3.125 -3.125,3.125l-3.125,-3.125c0,3.687 -1.464,7.223 -4.071,9.83c-2.607,2.607 -6.143,4.072 -9.83,4.072c-0.002,-0 -0.004,-0 -0.007,-0c-3.686,-0 -7.222,-1.465 -9.829,-4.072c-2.608,-2.607 -4.072,-6.143 -4.072,-9.83c-0,0 -3.125,3.125 -3.125,3.125l-3.125,-3.125c-0,3.687 -1.465,7.223 -4.072,9.83c-2.607,2.607 -6.143,4.072 -9.83,4.072c-0.002,-0 -0.004,-0 -0.006,-0c-3.687,-0 -7.223,-1.465 -9.83,-4.072c-2.607,-2.607 -4.072,-6.143 -4.072,-9.83c0,0 -3.125,3.125 -3.125,3.125l-3.125,-3.125c0,3.687 -1.464,7.223 -4.071,9.83c-2.607,2.607 -6.143,4.072 -9.83,4.072c-0.002,-0 -0.004,-0 -0.006,-0c-2.592,-0 -5.11,-0.724 -7.282,-2.06c-0.964,-0.592 -2.173,-0.618 -3.161,-0.065c-0.988,0.552 -1.6,1.596 -1.6,2.728l-0,108.984c-0,1.726 1.399,3.125 3.125,3.125l188.139,-0c1.726,-0 3.125,-1.399 3.125,-3.125l0,-108.984c0,-1.132 -0.612,-2.176 -1.6,-2.728c-0.988,-0.553 -2.197,-0.527 -3.162,0.065c-2.172,1.336 -4.689,2.06 -7.281,2.06c-0.002,-0 -0.004,-0 -0.006,-0c-3.687,-0 -7.223,-1.465 -9.83,-4.072c-2.607,-2.607 -4.072,-6.143 -4.072,-9.83Z" style="fill:#eaeffe;"/><path d="M61.164,218.38c-0,1.726 1.399,3.125 3.125,3.125l56.441,-0c1.726,-0 3.125,-1.399 3.125,-3.125l0,-59.344c0,-9.518 -7.716,-17.235 -17.235,-17.235c-8.619,0 -19.602,0 -28.221,0c-9.519,0 -17.235,7.717 -17.235,17.235l-0,59.344Z" style="fill:#2291ea;"/><path d="M154.864,141.801c-4.144,0 -8.118,1.646 -11.049,4.577c-2.93,2.93 -4.576,6.904 -4.576,11.048c-0,7.81 -0,17.83 -0,25.639c-0,4.144 1.646,8.118 4.576,11.049c2.931,2.93 6.905,4.576 11.049,4.576c12.928,0 33,0 45.929,0c4.144,0 8.118,-1.646 11.048,-4.576c2.93,-2.931 4.577,-6.905 4.577,-11.049c-0,-7.809 -0,-17.829 -0,-25.639c-0,-4.144 -1.647,-8.118 -4.577,-11.048c-2.93,-2.931 -6.904,-4.577 -11.048,-4.577l-45.929,0Z" style="fill:#2291ea;"/><path d="M167.393,77.494c-1.726,0 -3.125,1.399 -3.125,3.125l-0,14.274c-0,5.344 2.123,10.469 5.902,14.248c3.778,3.779 8.904,5.902 14.248,5.902c0.003,-0 0.006,-0 0.009,-0c5.344,-0 10.47,-2.123 14.249,-5.902c3.778,-3.779 5.901,-8.904 5.901,-14.248c0,-0 0,-14.274 0,-14.274c0,-1.726 -1.399,-3.125 -3.125,-3.125l-34.059,0Z" style="fill:#fcd148;"/><path d="M133.333,77.494c-1.726,0 -3.125,1.399 -3.125,3.125l0,14.274c0,5.344 2.123,10.469 5.902,14.248c3.779,3.779 8.904,5.902 14.248,5.902c0.004,-0 0.007,-0 0.01,-0c5.344,-0 10.469,-2.123 14.248,-5.902c3.779,-3.779 5.902,-8.904 5.902,-14.248c-0,-0 -0,-14.274 -0,-14.274c-0,-1.726 -1.399,-3.125 -3.125,-3.125l-34.06,0Z" style="fill:#f45558;"/><path d="M99.274,77.494c-1.726,0 -3.125,1.399 -3.125,3.125l-0,14.274c-0,5.344 2.123,10.469 5.902,14.248c3.778,3.779 8.904,5.902 14.248,5.902c0.003,-0 0.006,-0 0.009,-0c5.344,-0 10.47,-2.123 14.249,-5.902c3.778,-3.779 5.901,-8.904 5.901,-14.248c0,-0 0,-14.274 0,-14.274c0,-1.726 -1.399,-3.125 -3.125,-3.125l-34.059,0Z" style="fill:#fcd148;"/><path d="M65.214,77.494c-1.726,0 -3.125,1.399 -3.125,3.125l0,14.274c0,5.344 2.123,10.469 5.902,14.248c3.779,3.779 8.904,5.902 14.248,5.902c0.004,-0 0.007,-0 0.01,-0c5.344,-0 10.469,-2.123 14.248,-5.902c3.779,-3.779 5.902,-8.904 5.902,-14.248c-0,-0 -0,-14.274 -0,-14.274c-0,-1.726 -1.399,-3.125 -3.125,-3.125l-34.06,0Z" style="fill:#f45558;"/><path d="M244.725,34.668c-4.678,-12.692 -16.771,-21.123 -30.298,-21.123c-38.873,0 -123.314,0 -162.187,0c-13.527,0 -25.62,8.431 -30.299,21.123c-2.6,7.054 -5.571,15.115 -8.271,22.439c-2.239,6.073 -1.367,12.856 2.334,18.164c3.701,5.309 9.764,8.473 16.236,8.473c47.751,0 154.436,0 202.187,0c6.471,0 12.534,-3.164 16.235,-8.473c3.701,-5.308 4.573,-12.091 2.335,-18.164c-2.7,-7.324 -5.671,-15.385 -8.272,-22.439Z" style="fill:#2291ea;"/><path d="M31.359,77.466c-0.862,-0.057 -1.71,0.246 -2.34,0.837c-0.631,0.591 -0.989,1.417 -0.989,2.281l-0,14.309c-0,5.344 2.123,10.469 5.902,14.248c3.779,3.779 8.904,5.902 14.248,5.902c0.003,-0 0.006,-0 0.009,-0c5.344,-0 10.47,-2.123 14.249,-5.902c3.778,-3.779 5.901,-8.904 5.901,-14.248c0,-0 0,-14.274 0,-14.274c0,-1.726 -1.399,-3.125 -3.125,-3.125l-32.974,0c-0.295,0 -0.589,-0.009 -0.881,-0.028Z" style="fill:#fcd148;"/><path d="M238.637,80.584c-0,-0.864 -0.358,-1.69 -0.989,-2.281c-0.631,-0.591 -1.478,-0.894 -2.34,-0.837c-0.292,0.019 -0.586,0.028 -0.881,0.028c-0,0 -32.975,0 -32.975,0c-1.726,0 -3.125,1.399 -3.125,3.125l0,14.274c0,5.344 2.123,10.469 5.902,14.248c3.779,3.779 8.904,5.902 14.248,5.902c0.003,-0 0.007,-0 0.01,-0c5.344,-0 10.469,-2.123 14.248,-5.902c3.779,-3.779 5.902,-8.904 5.902,-14.248c-0,-0 -0,-14.309 -0,-14.309Z" style="fill:#f45558;"/><path d="M250.761,51.042l-234.855,-0l-2.236,6.065c-2.239,6.073 -1.367,12.856 2.334,18.164c3.701,5.309 9.764,8.473 16.236,8.473c47.751,0 154.436,0 202.187,0c6.471,0 12.534,-3.164 16.235,-8.473c3.701,-5.308 4.573,-12.091 2.335,-18.164l-2.236,-6.065Z" style="fill:#eaeffe;"/><path d="M242.287,237.5l-0,-6.62c-0,-8.63 -6.996,-15.625 -15.625,-15.625c-37.555,-0 -149.102,-0 -186.657,-0c-8.63,-0 -15.625,6.995 -15.625,15.625l-0,6.62c-0,8.629 6.995,15.625 15.625,15.625c37.555,-0 149.102,-0 186.657,-0c8.629,-0 15.625,-6.996 15.625,-15.625Z" style="fill:#494960;"/></svg>