<svg id="Layer_1" data-name="Layer 1" xmlns="http://www.w3.org/2000/svg" viewBox="0 0 24 24"><title>gluten-food-diet-allergent</title><path d="M18.5,3a.5.5,0,0,0-.5.5V6H17a5,5,0,0,0-4.5,2.86V2.5a.5.5,0,0,0-1,0V8.86A5,5,0,0,0,7,6H6V3.5a.5.5,0,0,0-1,0V8a5,5,0,0,0,2,4H5.5a.5.5,0,0,0-.5.5V14a5,5,0,0,0,5,5h1.5v2.5a.5.5,0,0,0,1,0V19H14a5,5,0,0,0,5-5V12.5a.5.5,0,0,0-.5-.5H17a5,5,0,0,0,2-4V3.5A.5.5,0,0,0,18.5,3ZM6,8V7H7a4,4,0,0,1,4,4v1H10A4,4,0,0,1,6,8Zm5,10H10a4,4,0,0,1-4-4V13H7a4,4,0,0,1,4,4Zm-1-5H11.5v1.86A4.88,4.88,0,0,0,10,13Zm8,0v1a4,4,0,0,1-4,4H13V17a4,4,0,0,1,4-4Zm-5.5,1.86V13H14A4.88,4.88,0,0,0,12.5,14.86ZM18,8a4,4,0,0,1-4,4H13V11a4,4,0,0,1,4-4h1Z"/></svg>