<svg id="Layer_1" enable-background="new 0 0 511.724 511.724" height="512" viewBox="0 0 511.724 511.724" width="512" xmlns="http://www.w3.org/2000/svg"><path d="m231.842 24.824h.01z"/><g><path d="m497.505 221.202-46.295-46.267v-65.433c0-13.163-5.112-25.485-14.328-34.632-9.093-9.139-21.724-14.381-34.653-14.381h-65.446l-46.269-46.247c-18.18-18.98-51.086-18.989-69.28-.025l-46.294 46.274h-65.446c-12.929 0-25.56 5.242-34.586 14.314-9.283 9.213-14.395 21.535-14.395 34.698v65.433l-46.323 46.295c-18.928 18.354-18.922 50.933.028 69.292l46.295 46.267v65.433c0 13.163 5.112 25.485 14.328 34.632 9.093 9.139 21.724 14.381 34.653 14.381h65.446l46.269 46.247c18.165 18.98 51.118 18.983 69.276.028l46.297-46.275h65.446c12.929 0 25.56-5.242 34.586-14.314 9.283-9.213 14.395-21.535 14.395-34.698v-65.433l46.323-46.295c18.93-18.355 18.923-50.934-.027-69.294zm-21.21 48.104s-50.687 50.655-50.688 50.655c-2.816 2.813-4.398 6.631-4.398 10.611v71.649c0 5.106-1.963 9.867-5.595 13.472-3.503 3.521-8.382 5.541-13.386 5.541h-71.657c-3.977 0-7.791 1.579-10.604 4.391l-50.72 50.696c-7.028 7.326-19.768 7.32-26.802-.028l-50.692-50.668c-2.812-2.812-6.627-4.391-10.604-4.391h-71.657c-5.004 0-9.883-2.02-13.453-5.607-3.564-3.538-5.528-8.299-5.528-13.405v-71.649c0-3.98-1.582-7.798-4.398-10.611 0 0-50.66-50.627-50.66-50.627-7.377-7.141-7.382-19.781-.028-26.915 0 0 50.687-50.655 50.687-50.655 2.816-2.813 4.398-6.631 4.398-10.611v-71.649c0-5.106 1.963-9.867 5.595-13.472 3.503-3.521 8.382-5.541 13.386-5.541h71.657c3.977 0 7.791-1.579 10.604-4.391l50.692-50.668c.01-.009.019-.019.028-.028 7.028-7.326 19.768-7.32 26.802.028l50.695 50.667c2.812 2.812 6.627 4.391 10.604 4.391h71.657c5.004 0 9.883 2.02 13.453 5.607 3.564 3.538 5.528 8.299 5.528 13.405v71.649c0 3.98 1.582 7.798 4.398 10.611 0 0 50.66 50.627 50.66 50.627 7.376 7.142 7.38 19.782.026 26.916z"/><path d="m159.462 184.629c-8.284 0-15 6.716-15 15v64.267c0 11.112-2.73 17.134-17.133 17.134-5.016 0-7.799-1.133-8.911-1.823.326-.83 1.191-2.444 3.45-4.704 5.858-5.857 5.858-15.355 0-21.213-5.857-5.857-15.355-5.857-21.213 0-11.573 11.572-15.323 25.178-10.291 37.327 5.294 12.782 19.113 20.413 36.964 20.413 29.513 0 47.133-17.62 47.133-47.134v-64.267c.001-8.284-6.715-15-14.999-15z"/><path d="m408.783 283.549c-21.39-14.539-24.777-57.119-55.981-58.743-10.155-.338-20.739 7.007-26.128 11.434-14.855 13.157 3.187 35.152 19.016 23.203 1.925-1.565 4.559-3.291 6.338-4.204 2.868 2.48 7.51 10.863 10.39 16.064 1.716 3.098 3.537 6.386 5.533 9.727h-47.822c-15.258 0-27.83-6.521-20.319-46.729 2.96-15.845 8.111-29.034 8.158-29.151 3.893-9.835-3.368-20.521-13.947-20.521-13.769 0-21.937 13.864-45.065 45.843-11.359-23.569-30.733-41.507-31.102-41.849-15.066-12.947-34.416 7.945-20.401 21.995 7.663 7.144 26.57 28.652 29.513 48.276-19.152 22.224-26.966 22.136-27.338 22.136-8.284 0-15 6.716-15 15s6.716 15 15 15c22.779 0 44.078-23.13 68.203-55.607.313 19.254 7.232 55.607 52.297 55.607h80.333c14.755-.037 20.572-19.271 8.322-27.481z"/></g></svg>