<svg id="Layer_1" data-name="Layer 1" xmlns="http://www.w3.org/2000/svg" viewBox="0 0 24 24"><title>leaf-allergent-diet-food</title><path d="M21.85,21.15l-2.51-2.52A7.72,7.72,0,0,0,19,8.1C16,5.1,9.72,2,2,2H2C2,12.28,5.09,16,8.1,19a7.7,7.7,0,0,0,10.53.33l2.52,2.51a.48.48,0,0,0,.7,0A.48.48,0,0,0,21.85,21.15Zm-8.31-.89a6.61,6.61,0,0,1-4.73-2c-3-3-5.62-6.36-5.8-15.28,6.8.25,12.53,3,15.29,5.79a6.69,6.69,0,0,1,.33,9.11l-2.55-2.55V10a.5.5,0,0,0-.5-.5.5.5,0,0,0-.5.5v4.37L11.74,11V7.13a.5.5,0,0,0-.5-.5.5.5,0,0,0-.5.5V10L7.49,6.78a.5.5,0,1,0-.71.71L10,10.73H7.14a.5.5,0,0,0-.5.5.5.5,0,0,0,.5.5H11l3.35,3.35H10a.51.51,0,0,0-.5.5.5.5,0,0,0,.5.5h5.38l2.54,2.55A6.67,6.67,0,0,1,13.54,20.26Z"/></svg>