<?xml version="1.0" encoding="UTF-8" standalone="no"?><!DOCTYPE svg PUBLIC "-//W3C//DTD SVG 1.1//EN" "http://www.w3.org/Graphics/SVG/1.1/DTD/svg11.dtd"><svg width="100%" height="100%" viewBox="0 0 267 267" version="1.1" xmlns="http://www.w3.org/2000/svg" xmlns:xlink="http://www.w3.org/1999/xlink" xml:space="preserve" xmlns:serif="http://www.serif.com/" style="fill-rule:evenodd;clip-rule:evenodd;stroke-linejoin:round;stroke-miterlimit:2;"><path d="M63.912,177.713c0.155,7.116 3.05,13.908 8.094,18.953c5.188,5.187 12.223,8.101 19.559,8.101c7.894,0 16.64,0 24.534,0c2.434,0 4.834,-0.321 7.144,-0.939c1.355,-0.362 2.303,-1.583 2.318,-2.985c0.209,-19.559 3.964,-41.011 12.307,-55.462c2.311,-4.004 4.817,-7.573 7.481,-10.717c0.641,-0.755 0.885,-1.769 0.659,-2.733c-0.226,-0.965 -0.896,-1.764 -1.805,-2.157c-2.249,-0.969 -4.366,-2.187 -6.316,-3.62c-1.318,-0.968 -3.16,-0.756 -4.224,0.487c-1.623,1.897 -3.266,3.771 -4.813,5.635c-0.033,0.04 -0.065,0.081 -0.097,0.123c-2.513,3.358 -6.462,5.335 -10.656,5.335c-0.133,0 -0.264,0.009 -0.393,0.026c-2.607,-0.22 -4.613,-2.365 -4.613,-4.978l-0.002,-7.667c0,-0.889 -0.378,-1.735 -1.04,-2.328c-0.662,-0.593 -1.545,-0.876 -2.428,-0.778c-1.68,0.186 -3.39,0.281 -5.125,0.281c-2.165,0 -4.291,-0.148 -6.369,-0.436c-0.895,-0.124 -1.8,0.146 -2.481,0.739c-0.682,0.594 -1.073,1.453 -1.073,2.357l0,7.922c0,2.71 -2.196,4.906 -4.906,4.906c0,-0 -0.004,-0 -0.004,-0c-4.215,-0.001 -8.182,-1.992 -10.701,-5.372c-0.027,-0.037 -0.056,-0.074 -0.086,-0.11c-1.383,-1.693 -2.85,-3.39 -4.315,-5.104c-1.042,-1.22 -2.839,-1.451 -4.157,-0.536c-3.695,2.565 -7.951,4.378 -12.546,5.215c-0.934,0.17 -1.739,0.755 -2.19,1.59c-0.451,0.835 -0.497,1.829 -0.127,2.703c5.47,12.915 8.312,26.836 8.312,40.943c0,0.207 0.02,0.41 0.059,0.606Z" style="fill:#7eef97;"/><path d="M129.018,132.074c-1.304,1.907 -2.565,3.911 -3.78,6.015c-10.006,17.331 -14.403,43.564 -14.184,66.678l5.045,0c2.434,0 4.834,-0.321 7.144,-0.939c1.355,-0.362 2.303,-1.583 2.318,-2.985c0.209,-19.559 3.964,-41.011 12.307,-55.462c2.311,-4.004 4.817,-7.573 7.481,-10.717c0.641,-0.755 0.885,-1.769 0.659,-2.733c-0.226,-0.965 -0.896,-1.764 -1.805,-2.157c-2.249,-0.969 -4.366,-2.187 -6.316,-3.62c-1.318,-0.968 -3.16,-0.756 -4.224,0.487c-1.565,1.829 -3.147,3.635 -4.645,5.433Z" style="fill:#74e28c;"/><path d="M59.269,146.423c8.795,-1.364 16.786,-5.177 23.247,-10.721c-1.358,-0.861 -2.567,-1.972 -3.554,-3.296c-0.027,-0.037 -0.056,-0.074 -0.086,-0.11c-1.383,-1.693 -2.85,-3.39 -4.315,-5.104c-1.042,-1.22 -2.839,-1.451 -4.157,-0.536c-3.695,2.565 -7.951,4.378 -12.546,5.215c-0.934,0.17 -1.739,0.755 -2.19,1.59c-0.451,0.835 -0.497,1.829 -0.127,2.703c1.421,3.357 2.665,6.781 3.728,10.259Zm66.637,-11.22c3.698,3.278 7.921,5.979 12.523,7.963c0.203,0.088 0.408,0.169 0.614,0.244c1.978,-3.214 4.087,-6.127 6.306,-8.746c0.641,-0.755 0.885,-1.769 0.659,-2.733c-0.226,-0.965 -0.896,-1.764 -1.805,-2.157c-2.249,-0.969 -4.366,-2.187 -6.316,-3.62c-1.318,-0.968 -3.16,-0.756 -4.224,0.487c-1.623,1.897 -3.266,3.771 -4.813,5.635c-0.033,0.04 -0.065,0.081 -0.097,0.123c-0.812,1.086 -1.775,2.027 -2.847,2.804Zm-32.367,0.682c3.543,0.648 7.206,0.989 10.957,0.989c3.359,-0 6.647,-0.274 9.842,-0.796c-0.779,-0.879 -1.247,-2.033 -1.247,-3.296l-0.002,-7.667c0,-0.889 -0.378,-1.735 -1.04,-2.328c-0.662,-0.593 -1.545,-0.876 -2.428,-0.778c-1.68,0.186 -3.39,0.281 -5.125,0.281c-2.165,0 -4.291,-0.148 -6.369,-0.436c-0.895,-0.124 -1.8,0.146 -2.481,0.739c-0.682,0.594 -1.073,1.453 -1.073,2.357l0,7.922c0,1.136 -0.386,2.181 -1.034,3.013Z" style="fill:#74e28c;"/><path d="M176.058,116.943l0.193,-0.024l2.334,-4.182c-1.34,-3.539 -1.562,-7.81 -0.41,-12.107c1.76,-6.569 6.258,-11.516 11.429,-12.962c0.893,-0.25 1.629,-0.883 2.009,-1.729c0.38,-0.846 0.364,-1.817 -0.042,-2.651c-3.121,-6.395 -7.963,-11.8 -13.921,-15.609c0.637,-2.506 0.976,-5.133 0.976,-7.839c-0,-17.579 -14.272,-31.85 -31.851,-31.85c-3.216,-0 -6.322,0.478 -9.251,1.367c-7.248,-9.51 -19.331,-15.783 -33.028,-15.783c-13.696,-0 -25.779,6.272 -33.029,15.783c-2.927,-0.889 -6.033,-1.367 -9.249,-1.367c-17.579,-0 -31.851,14.271 -31.851,31.85c-0,2.706 0.338,5.333 0.974,7.841c-10.7,6.839 -17.799,18.827 -17.799,32.46c-0,21.25 17.252,38.503 38.503,38.503c12.392,0 23.426,-5.866 30.469,-14.971c6.579,3.107 14.056,4.867 21.982,4.867c7.927,0 15.404,-1.76 21.984,-4.866c3.971,5.133 9.212,9.237 15.248,11.84c1.263,0.544 2.733,0.199 3.622,-0.85c8.922,-10.531 19.631,-16.29 30.724,-17.722l-0.016,0.001Z" style="fill:#57da6a;"/><path d="M188.672,78.327c-10.677,1.938 -20.664,10.645 -24.171,23.736c-0.746,2.784 -1.14,5.56 -1.221,8.267c-10.519,3.592 -20.579,10.356 -29.206,20.778c2.36,1.746 4.926,3.229 7.654,4.406c1.263,0.544 2.733,0.199 3.622,-0.85c8.922,-10.531 19.631,-16.29 30.724,-17.722l-0.016,0.001l0.193,-0.024l2.334,-4.182c-1.34,-3.539 -1.562,-7.81 -0.41,-12.107c1.76,-6.569 6.258,-11.516 11.429,-12.962c0.893,-0.25 1.629,-0.883 2.009,-1.729c0.38,-0.846 0.364,-1.817 -0.042,-2.651c-0.845,-1.73 -1.815,-3.387 -2.899,-4.961Z" style="fill:#50cf62;"/><path d="M172.74,114.95c0.512,1.354 1.888,2.179 3.324,1.993c5.565,-0.721 11.223,-0.354 16.785,1.025c0.859,0.212 1.767,0.051 2.5,-0.443c0.733,-0.495 1.222,-1.277 1.346,-2.153c0.394,-2.785 1.359,-5.63 2.918,-8.329c2.132,-3.694 5.056,-6.563 8.284,-8.388c1.247,-0.704 1.855,-2.165 1.476,-3.546c-1.843,-6.725 -6.437,-11.886 -12.644,-13.549c-10.055,-2.694 -21.23,4.909 -24.591,17.452c-1.516,5.658 -1.162,11.279 0.602,15.938Z" style="fill:#45c156;"/><path d="M218.944,128.218c-0.696,0.545 -1.129,1.359 -1.191,2.242c-0.062,0.882 0.253,1.749 0.866,2.386c3.974,4.128 7.121,8.843 9.281,14.025c0.557,1.336 1.959,2.115 3.387,1.882c4.918,-0.803 9.963,-3.306 14.104,-7.448c9.182,-9.182 10.18,-22.662 2.819,-30.023c-4.544,-4.544 -11.311,-5.942 -18.056,-4.176c-1.385,0.363 -2.347,1.62 -2.334,3.052c0.034,3.708 -0.989,7.675 -3.121,11.368c-1.558,2.7 -3.54,4.958 -5.755,6.692Z" style="fill:#45c156;"/><path d="M190.507,114.496c-0.225,1.587 0.787,3.086 2.342,3.472c4.743,1.175 9.414,3.082 13.904,5.675c4.49,2.592 8.477,5.683 11.867,9.203c1.111,1.154 2.915,1.281 4.177,0.293c2.811,-2.2 5.336,-5.06 7.315,-8.488c7.008,-12.138 4.319,-26.476 -5.411,-32.094c-9.731,-5.619 -23.493,-0.777 -30.501,11.361c-1.979,3.427 -3.193,7.044 -3.693,10.578Z" style="fill:#59d96b;"/><path d="M209.878,118.23c-13.164,-7.6 -27.726,-9.885 -41.415,-6.117c-13.587,3.741 -26.377,13.462 -36.008,30.143c-13.135,22.751 -15.743,61.909 -10.801,86.407c1.317,6.527 3.177,12.039 5.462,16.008c1.753,3.047 3.799,5.245 6,6.515c2.2,1.271 5.127,1.944 8.642,1.939c4.58,-0.006 10.283,-1.151 16.594,-3.274c23.687,-7.969 56.295,-29.807 69.43,-52.558c9.631,-16.681 11.655,-32.618 8.101,-46.255c-3.581,-13.739 -12.841,-25.208 -26.005,-32.808Z" style="fill:#ffba4f;"/><path d="M141.187,219.248l20.069,11.587c1.494,0.862 3.407,0.35 4.269,-1.144c0.862,-1.494 0.35,-3.407 -1.144,-4.269l-20.069,-11.587c-1.493,-0.862 -3.406,-0.349 -4.268,1.144c-0.863,1.494 -0.35,3.407 1.143,4.269Zm62.738,4.543c1.721,-1.406 3.403,-2.844 5.036,-4.309l-19.242,-11.109c-1.494,-0.863 -3.407,-0.35 -4.269,1.144c-0.862,1.493 -0.35,3.406 1.144,4.268l17.331,10.006Zm-82.498,-47.568c-0.36,2.21 -0.671,4.439 -0.937,6.676l18.117,10.46c1.494,0.862 3.406,0.35 4.269,-1.144c0.862,-1.493 0.35,-3.406 -1.144,-4.269l-20.305,-11.723Zm41.665,-1.26l22.816,13.173c1.494,0.862 3.407,0.35 4.269,-1.144c0.862,-1.493 0.35,-3.406 -1.144,-4.269l-22.816,-13.173c-1.494,-0.862 -3.407,-0.349 -4.269,1.144c-0.863,1.494 -0.35,3.407 1.144,4.269Zm35.201,-24.408l18.161,10.485c1.493,0.862 3.406,0.349 4.268,-1.144c0.863,-1.494 0.35,-3.407 -1.143,-4.269l-18.161,-10.485c-1.493,-0.862 -3.406,-0.35 -4.269,1.144c-0.862,1.494 -0.349,3.406 1.144,4.269Zm-45.001,-12.33l16.399,9.468c1.494,0.863 3.407,0.35 4.269,-1.144c0.862,-1.493 0.35,-3.406 -1.144,-4.268l-16.399,-9.468c-1.493,-0.863 -3.406,-0.35 -4.268,1.144c-0.863,1.493 -0.35,3.406 1.143,4.268Z" style="fill:#ff8645;"/></svg>